<?xml version="1.0" standalone="no"?>
<svg viewBox="0 0 200 200" xmlns="http://www.w3.org/2000/svg">
  <path fill="#370C0A" d="M41.4,-72C55.5,-63.7,70,-56.2,78.4,-44.4C86.8,-32.5,89.2,-16.3,84.4,-2.8C79.5,10.7,67.6,21.4,60.1,34.9C52.7,48.4,49.8,64.8,40.5,70.8C31.2,76.9,15.6,72.6,0.7,71.4C-14.2,70.2,-28.4,72,-38.7,66.6C-48.9,61.1,-55.2,48.3,-62.7,36C-70.1,23.7,-78.6,11.8,-77.8,0.4C-77.1,-11,-67,-21.9,-57.7,-31C-48.4,-40,-39.9,-47.1,-30.4,-58.1C-20.9,-69.2,-10.4,-84,1.6,-86.8C13.7,-89.6,27.4,-80.4,41.4,-72Z" transform="translate(100 100)" />
</svg>
